{
  "accessors": [
    {
      "bufferView": 2,
      "componentType": 5126,
      "count": 38189,
      "max": [
        5.885375499725342,
        1.8922245502471924,
        2.277385711669922
      ],
      "min": [
        -2.105921745300293,
        -7.168095588684082,
        -5.59132194519043
      ],
      "type": "VEC3"
    },
    {
      "bufferView": 2,
      "byteOffset": 458268,
      "componentType": 5126,
      "count": 38189,
      "max": [
        0.9999440908432007,
        0.9999881982803345,
        0.9999445676803589
      ],
      "min": [
        -0.9999372959136963,
        -0.9999905824661255,
        -0.9999511241912842
      ],
      "type": "VEC3"
    },
    {
      "bufferView": 1,
      "componentType": 5126,
      "count": 38189,
      "max": [
        1.0091309547424316,
        1.4245518445968628
      ],
      "min": [
        0.0,
        0.0
      ],
      "type": "VEC2"
    },
    {
      "bufferView": 1,
      "byteOffset": 305512,
      "componentType": 5126,
      "count": 38189,
      "max": [
        1.0091309547424316,
        1.4245518445968628
      ],
      "min": [
        0.0,
        0.0
      ],
      "type": "VEC2"
    },
    {
      "bufferView": 0,
      "componentType": 5125,
      "count": 219078,
      "type": "SCALAR"
    }
  ],
  "asset": {
    "extras": {
      "author": "Sirko_herr (https://sketchfab.com/Sirko_herr)",
      "license": "CC-BY-4.0 (http://creativecommons.org/licenses/by/4.0/)",
      "source": "https://sketchfab.com/3d-models/brocoli-5-7ac304893c654d3daed685f795247711",
      "title": "Brocoli 5"
    },
    "generator": "Sketchfab-10.99.0",
    "version": "2.0"
  },
  "bufferViews": [
    {
      "buffer": 0,
      "byteLength": 876312,
      "name": "floatBufferViews",
      "target": 34963
    },
    {
      "buffer": 0,
      "byteLength": 611024,
      "byteOffset": 876312,
      "byteStride": 8,
      "name": "floatBufferViews",
      "target": 34962
    },
    {
      "buffer": 0,
      "byteLength": 916536,
      "byteOffset": 1487336,
      "byteStride": 12,
      "name": "floatBufferViews",
      "target": 34962
    }
  ],
  "buffers": [
    {
      "byteLength": 2403872,
      "uri": "scene.bin"
    }
  ],
  "extensionsRequired": [
    "KHR_materials_pbrSpecularGlossiness"
  ],
  "extensionsUsed": [
    "KHR_materials_pbrSpecularGlossiness"
  ],
  "images": [
    {
      "uri": "textures/Material.002_diffuse.png"
    },
    {
      "uri": "textures/Material.002_specularGlossiness.png"
    }
  ],
  "materials": [
    {
      "doubleSided": true,
      "extensions": {
        "KHR_materials_pbrSpecularGlossiness": {
          "diffuseFactor": [
            1.0,
            1.0,
            1.0,
            1.0
          ],
          "diffuseTexture": {
            "index": 0
          },
          "glossinessFactor": 1.0,
          "specularFactor": [
            0.232304788275688,
            0.232304788275688,
            0.232304788275688
          ],
          "specularGlossinessTexture": {
            "index": 1
          }
        }
      },
      "name": "Material.002"
    }
  ],
  "meshes": [
    {
      "name": "Object_0",
      "primitives": [
        {
          "attributes": {
            "NORMAL": 1,
            "POSITION": 0,
            "TEXCOORD_0": 2,
            "TEXCOORD_1": 3
          },
          "indices": 4,
          "material": 0,
          "mode": 4
        }
      ]
    }
  ],
  "nodes": [
    {
      "children": [
        1
      ],
      "matrix": [
        1.0,
        0.0,
        0.0,
        0.0,
        0.0,
        2.220446049250313e-16,
        -1.0,
        0.0,
        0.0,
        1.0,
        2.220446049250313e-16,
        0.0,
        0.0,
        0.0,
        0.0,
        1.0
      ],
      "name": "Sketchfab_model"
    },
    {
      "children": [
        2
      ],
      "name": "root"
    },
    {
      "children": [
        3
      ],
      "matrix": [
        1.0,
        0.0,
        0.0,
        0.0,
        0.0,
        2.220446049250313e-16,
        1.0,
        0.0,
        0.0,
        -1.0,
        2.220446049250313e-16,
        0.0,
        0.0,
        0.0,
        0.0,
        1.0
      ],
      "name": "GLTF_SceneRootNode"
    },
    {
      "children": [
        4
      ],
      "matrix": [
        -0.30646343880549887,
        0.17767935897957493,
        -0.12639235142391664,
        0.0,
        0.17073203957624117,
        0.3445694587127314,
        0.07041369580471137,
        0.0,
        0.14234628073717515,
        -1.4983813390541824e-09,
        -0.34514692123897245,
        0.0,
        1.1488368511199951,
        3.413975477218628,
        -0.3571695387363434,
        1.0
      ],
      "name": "Sphere.002_2"
    },
    {
      "mesh": 0,
      "name": "Object_4"
    }
  ],
  "samplers": [
    {
      "magFilter": 9729,
      "minFilter": 9987,
      "wrapS": 10497,
      "wrapT": 10497
    }
  ],
  "scene": 0,
  "scenes": [
    {
      "name": "Sketchfab_Scene",
      "nodes": [
        0
      ]
    }
  ],
  "textures": [
    {
      "sampler": 0,
      "source": 0
    },
    {
      "sampler": 0,
      "source": 1
    }
  ]
}
